<svg width="107" height="28" viewBox="0 0 107 28" fill="none" xmlns="http://www.w3.org/2000/svg">
<path d="M11.31 24.34C11.31 25.3 10.71 25.78 9.51 25.78C8.33 25.78 7.74 25.3 7.74 24.34V17.86C7.74 17.78 7.73 17.71 7.71 17.65C7.69 17.59 7.61 17.56 7.47 17.56H1.59C0.85 17.56 0.47 17.06 0.45 16.06C0.45 15.04 0.83 14.53 1.59 14.53H9.42C10.14 14.53 10.63 14.72 10.89 15.1C11.17 15.46 11.31 15.87 11.31 16.33V24.34ZM18.78 24.34C18.78 25.3 18.18 25.78 16.98 25.78C15.8 25.78 15.21 25.3 15.21 24.34V16.12C15.21 15.16 15.8 14.68 16.98 14.68C18.18 14.68 18.78 15.16 18.78 16.12V24.34ZM20.37 6.91C20.37 8.75 19.64 10.34 18.18 11.68C16.74 13 14.98 13.66 12.9 13.66C10.78 13.66 8.99 13 7.53 11.68C6.09 10.36 5.37 8.77 5.37 6.91C5.37 5.05 6.09 3.46 7.53 2.14C8.99 0.819998 10.78 0.159998 12.9 0.159998C14.98 0.159998 16.74 0.829998 18.18 2.17C19.64 3.49 20.37 5.07 20.37 6.91ZM16.8 6.91C16.8 5.87 16.41 4.99 15.63 4.27C14.87 3.55 13.96 3.19 12.9 3.19C11.82 3.19 10.9 3.55 10.14 4.27C9.38 4.99 9 5.87 9 6.91C9 7.95 9.38 8.83 10.14 9.55C10.9 10.27 11.82 10.63 12.9 10.63C13.96 10.63 14.87 10.27 15.63 9.55C16.41 8.83 16.8 7.95 16.8 6.91ZM41.9447 19.27C42.4047 20.31 42.0747 21.04 40.9547 21.46C39.8547 21.86 39.1047 21.6 38.7047 20.68L33.1847 8.29L27.6647 20.68C27.2647 21.6 26.5147 21.86 25.4147 21.46C24.3147 21.04 23.9847 20.31 24.4247 19.27L31.2347 3.97H26.1647C25.4247 3.97 25.0447 3.47 25.0247 2.47C25.0247 1.45 25.4047 0.939999 26.1647 0.939999H40.2047C40.9847 0.939999 41.3647 1.45 41.3447 2.47C41.3447 3.47 40.9647 3.97 40.2047 3.97H35.1347L41.9447 19.27ZM47.8247 24.34C47.8247 25.3 47.2247 25.78 46.0247 25.78C44.8447 25.78 44.2547 25.3 44.2547 24.34V1.72C44.2547 0.759999 44.8447 0.279998 46.0247 0.279998C47.2247 0.279998 47.8247 0.759999 47.8247 1.72V24.34ZM66.7167 6.58C66.7167 8.16 65.8067 10.21 63.9867 12.73C62.1867 15.25 59.0867 17.25 54.6867 18.73C53.5467 19.11 52.7667 18.84 52.3467 17.92C51.9467 16.98 52.1467 16.37 52.9467 16.09C55.1867 15.29 57.4467 13.98 59.7267 12.16C62.0067 10.32 63.1467 8.35 63.1467 6.25V4.27C63.1467 4.19 63.1367 4.12 63.1167 4.06C63.0967 4 63.0167 3.97 62.8767 3.97H53.9967C53.2567 3.97 52.8767 3.47 52.8567 2.47C52.8567 1.45 53.2367 0.939999 53.9967 0.939999H64.8267C65.5467 0.939999 66.0367 1.13 66.2967 1.51C66.5767 1.87 66.7167 2.28 66.7167 2.74V6.58ZM77.7867 21.61C77.7867 23.33 77.0967 24.8 75.7167 26.02C74.3367 27.26 72.6567 27.88 70.6767 27.88C68.6767 27.88 66.9767 27.27 65.5767 26.05C64.1967 24.83 63.5067 23.35 63.5067 21.61C63.5067 19.87 64.1967 18.39 65.5767 17.17C66.9767 15.95 68.6767 15.34 70.6767 15.34C72.6567 15.34 74.3367 15.96 75.7167 17.2C77.0967 18.42 77.7867 19.89 77.7867 21.61ZM74.2167 21.61C74.2167 20.71 73.8667 19.95 73.1667 19.33C72.4867 18.71 71.6567 18.4 70.6767 18.4C69.6967 18.4 68.8567 18.71 68.1567 19.33C67.4767 19.95 67.1367 20.71 67.1367 21.61C67.1367 22.51 67.4767 23.27 68.1567 23.89C68.8567 24.51 69.6967 24.82 70.6767 24.82C71.6567 24.82 72.4867 24.51 73.1667 23.89C73.8667 23.27 74.2167 22.51 74.2167 21.61ZM76.3467 13.78C76.3467 14.74 75.7467 15.22 74.5467 15.22C73.3667 15.22 72.7767 14.74 72.7767 13.78V1.72C72.7767 0.759999 73.3667 0.279998 74.5467 0.279998C75.7467 0.279998 76.3467 0.759999 76.3467 1.72V13.78ZM71.9967 5.14C71.9967 5.78 71.7667 6.33 71.3067 6.79C70.8667 7.23 70.3267 7.45 69.6867 7.45C69.0467 7.45 68.4967 7.23 68.0367 6.79C67.5967 6.33 67.3767 5.78 67.3767 5.14C67.3767 4.5 67.5967 3.96 68.0367 3.52C68.4967 3.06 69.0467 2.83 69.6867 2.83C70.3267 2.83 70.8667 3.06 71.3067 3.52C71.7667 3.96 71.9967 4.5 71.9967 5.14ZM71.9967 11.29C71.9967 11.93 71.7667 12.48 71.3067 12.94C70.8667 13.38 70.3267 13.6 69.6867 13.6C69.0467 13.6 68.4967 13.38 68.0367 12.94C67.5967 12.48 67.3767 11.93 67.3767 11.29C67.3767 10.65 67.5967 10.11 68.0367 9.67C68.4967 9.21 69.0467 8.98 69.6867 8.98C70.3267 8.98 70.8667 9.21 71.3067 9.67C71.7667 10.11 71.9967 10.65 71.9967 11.29ZM106.322 21.61C106.322 23.33 105.632 24.8 104.252 26.02C102.872 27.26 101.192 27.88 99.2119 27.88C97.2119 27.88 95.5119 27.27 94.1119 26.05C92.7319 24.83 92.0419 23.35 92.0419 21.61C92.0419 19.87 92.7319 18.39 94.1119 17.17C95.5119 15.95 97.2119 15.34 99.2119 15.34C101.192 15.34 102.872 15.96 104.252 17.2C105.632 18.42 106.322 19.89 106.322 21.61ZM96.5419 13.15C96.8619 14.07 96.4619 14.72 95.3419 15.1C94.2219 15.48 93.5019 15.21 93.1819 14.29L89.6119 3.37L83.8519 20.68C83.5319 21.6 82.8119 21.87 81.6919 21.49C80.5719 21.11 80.1719 20.46 80.4919 19.54L86.3719 1.84C86.6919 0.919999 87.4119 0.659999 88.5319 1.06C89.0319 1.24 89.3919 1.47 89.6119 1.75C89.8319 1.47 90.1919 1.24 90.6919 1.06C91.8119 0.659999 92.5319 0.919999 92.8519 1.84L96.5419 13.15ZM104.912 13.84C104.912 14.8 104.312 15.28 103.112 15.28C101.932 15.28 101.342 14.8 101.342 13.84V1.69C101.342 0.729999 101.932 0.249999 103.112 0.249999C104.312 0.249999 104.912 0.729999 104.912 1.69V13.84ZM102.752 21.61C102.752 20.71 102.402 19.95 101.702 19.33C101.022 18.71 100.192 18.4 99.2119 18.4C98.2319 18.4 97.3919 18.71 96.6919 19.33C96.0119 19.95 95.6719 20.71 95.6719 21.61C95.6719 22.51 96.0119 23.27 96.6919 23.89C97.3919 24.51 98.2319 24.82 99.2119 24.82C100.192 24.82 101.022 24.51 101.702 23.89C102.402 23.27 102.752 22.51 102.752 21.61ZM100.592 7.09C100.592 7.73 100.362 8.28 99.9019 8.74C99.4619 9.18 98.9219 9.4 98.2819 9.4C97.6419 9.4 97.0919 9.18 96.6319 8.74C96.1919 8.28 95.9719 7.73 95.9719 7.09C95.9719 6.45 96.1919 5.91 96.6319 5.47C97.0919 5.01 97.6419 4.78 98.2819 4.78C98.9219 4.78 99.4619 5.01 99.9019 5.47C100.362 5.91 100.592 6.45 100.592 7.09Z" fill="#2E406A"/>
</svg>
